<?xml version="1.0" encoding="UTF-8"?>
<svg id="Layer_1" xmlns="http://www.w3.org/2000/svg" version="1.1" xmlns:xlink="http://www.w3.org/1999/xlink" viewBox="0 0 326 369">
  <!-- Generator: Adobe Illustrator 29.1.0, SVG Export Plug-In . SVG Version: 2.1.0 Build 142)  -->
  <defs>
    <style>
      .st0 {
        fill: #374151;
      }

      .st1 {
        opacity: .4;
      }

      .st1, .st2, .st3, .st4, .st5, .st6, .st7, .st8, .st9, .st10 {
        isolation: isolate;
      }

      .st1, .st9, .st10 {
        fill: #94a3b8;
      }

      .st2 {
        opacity: .9;
      }

      .st2, .st11, .st5, .st7 {
        fill: #fff;
      }

      .st3, .st4, .st6 {
        opacity: .8;
      }

      .st3, .st12 {
        fill: #22c55e;
      }

      .st13 {
        opacity: .6;
      }

      .st4, .st14 {
        fill: #f59e0b;
      }

      .st5, .st9 {
        opacity: .3;
      }

      .st6 {
        fill: #3b82f6;
      }

      .st15 {
        fill: #cbd5e1;
      }

      .st7, .st10 {
        opacity: .5;
      }

      .st8 {
        fill: url(#linear-gradient);
        opacity: .9;
      }

      .st16 {
        fill: #1e40af;
      }
    </style>
    <linearGradient id="linear-gradient" x1="-793.2" y1="725.2" x2="-793.2" y2="724.2" gradientTransform="translate(247656 255278) scale(312 -352)" gradientUnits="userSpaceOnUse">
      <stop offset="0" stop-color="#f8fafc"/>
      <stop offset="1" stop-color="#e2e8f0"/>
    </linearGradient>
  </defs>
  <rect class="st8" x="7" y="9" width="312" height="352" rx="16" ry="16"/>
  <rect class="st16" x="7" y="9" width="312" height="60" rx="16" ry="16"/>
  <rect class="st16" x="7" y="39" width="312" height="30"/>
  <path class="st2" d="M40,25h34c1.7,0,3,1.3,3,3h0c0,1.7-1.3,3-3,3h-34c-1.7,0-3-1.3-3-3h0c0-1.7,1.3-3,3-3Z"/>
  <path class="st7" d="M90,25h54c1.7,0,3,1.3,3,3h0c0,1.7-1.3,3-3,3h-54c-1.7,0-3-1.3-3-3h0c0-1.7,1.3-3,3-3Z"/>
  <path class="st7" d="M240,25h46c1.7,0,3,1.3,3,3h0c0,1.7-1.3,3-3,3h-46c-1.7,0-3-1.3-3-3h0c0-1.7,1.3-3,3-3Z"/>
  <path class="st5" d="M40,41h74c1.7,0,3,1.3,3,3h0c0,1.7-1.3,3-3,3H40c-1.7,0-3-1.3-3-3h0c0-1.7,1.3-3,3-3Z"/>
  <g class="st13">
    <rect class="st15" x="37" y="89" width="50" height="40" rx="6" ry="6"/>
    <rect class="st15" x="97" y="89" width="50" height="40" rx="6" ry="6"/>
    <rect class="st15" x="157" y="89" width="50" height="40" rx="6" ry="6"/>
    <rect class="st15" x="217" y="89" width="72" height="40" rx="6" ry="6"/>
    <rect class="st15" x="37" y="139" width="50" height="40" rx="6" ry="6"/>
    <rect class="st15" x="97" y="139" width="50" height="40" rx="6" ry="6"/>
    <rect class="st15" x="157" y="139" width="50" height="40" rx="6" ry="6"/>
    <rect class="st15" x="217" y="139" width="72" height="40" rx="6" ry="6"/>
    <rect class="st15" x="37" y="189" width="50" height="40" rx="6" ry="6"/>
    <rect class="st15" x="97" y="189" width="50" height="40" rx="6" ry="6"/>
    <rect class="st15" x="157" y="189" width="50" height="40" rx="6" ry="6"/>
    <rect class="st15" x="217" y="189" width="72" height="40" rx="6" ry="6"/>
  </g>
  <rect class="st6" x="97" y="89" width="50" height="40" rx="6" ry="6"/>
  <rect class="st3" x="217" y="89" width="72" height="40" rx="6" ry="6"/>
  <rect class="st6" x="37" y="139" width="50" height="40" rx="6" ry="6"/>
  <rect class="st4" x="157" y="139" width="50" height="40" rx="6" ry="6"/>
  <rect class="st3" x="97" y="189" width="50" height="40" rx="6" ry="6"/>
  <rect class="st6" x="217" y="189" width="72" height="40" rx="6" ry="6"/>
  <path class="st10" d="M40,249h114c1.7,0,3,1.3,3,3h0c0,1.7-1.3,3-3,3H40c-1.7,0-3-1.3-3-3h0c0-1.7,1.3-3,3-3Z"/>
  <path class="st9" d="M40,265h74c1.7,0,3,1.3,3,3h0c0,1.7-1.3,3-3,3H40c-1.7,0-3-1.3-3-3h0c0-1.7,1.3-3,3-3Z"/>
  <path class="st1" d="M40,281h154c1.7,0,3,1.3,3,3h0c0,1.7-1.3,3-3,3H40c-1.7,0-3-1.3-3-3h0c0-1.7,1.3-3,3-3Z"/>
  <g>
    <rect class="st14" x="266.5" y="256" width="12" height="60" rx="3" ry="3" transform="translate(-122.4 276.4) rotate(-45)"/>
    <polygon class="st0" points="297.2 310.7 289.4 311.4 297.9 302.9 297.2 310.7"/>
  </g>
  <circle class="st12" cx="287" cy="29" r="14"/>
  <path class="st11" d="M279,23h16c1.1,0,2,.9,2,2h0c0,1.1-.9,2-2,2h-16c-1.1,0-2-.9-2-2h0c0-1.1.9-2,2-2Z"/>
  <path class="st11" d="M287,15h0c1.1,0,2,.9,2,2v8c0,1.1-.9,2-2,2h0c-1.1,0-2-.9-2-2v-8c0-1.1.9-2,2-2Z"/>
</svg>